<svg xmlns="http://www.w3.org/2000/svg" width="22" height="22" viewBox="0 0 22 22">
  <g id="Verified" transform="translate(-208 -636)">
    <path id="Polygon_3" data-name="Polygon 3" d="M12.343,1.331a2,2,0,0,1,2.949.95l.171.437a2,2,0,0,0,1.7,1.264l.426.034a2,2,0,0,1,1.788,2.442l-.155.671a2,2,0,0,0,.616,1.94l.493.441a2,2,0,0,1,0,2.981l-.493.441a2,2,0,0,0-.616,1.94l.155.671a2,2,0,0,1-1.788,2.442l-.426.034a2,2,0,0,0-1.7,1.264l-.171.437a2,2,0,0,1-2.949.95l-.257-.166a2,2,0,0,0-2.173,0l-.257.166a2,2,0,0,1-2.949-.95l-.171-.437a2,2,0,0,0-1.7-1.264l-.426-.034A2,2,0,0,1,2.62,15.542l.155-.671a2,2,0,0,0-.616-1.94l-.493-.441a2,2,0,0,1,0-2.981l.493-.441a2,2,0,0,0,.616-1.94l-.155-.671A2,2,0,0,1,4.409,4.015l.426-.034a2,2,0,0,0,1.7-1.264l.171-.437a2,2,0,0,1,2.949-.95l.257.166a2,2,0,0,0,2.173,0Z" transform="translate(208 636)" fill="#1da1f2"/>
    <path id="Path_1" data-name="Path 1" d="M216.773,648.914l3.262,2.452s4.14-4.879,5.52-6.4" transform="translate(-2.035 -1.393)" fill="none" stroke="#1b2730" stroke-linejoin="round" stroke-width="2"/>
  </g>
</svg>
